<svg width="25" height="25" viewBox="0 0 25 25" fill="none" xmlns="http://www.w3.org/2000/svg">
<path d="M21.1484 22.2119H3.14844C2.73844 22.2119 2.39844 21.8719 2.39844 21.4619C2.39844 21.0519 2.73844 20.7119 3.14844 20.7119H21.1484C21.5584 20.7119 21.8984 21.0519 21.8984 21.4619C21.8984 21.8719 21.5584 22.2119 21.1484 22.2119Z" fill="#134D4A"/>
<path d="M19.167 3.69195C17.227 1.75195 15.327 1.70195 13.337 3.69195L12.127 4.90195C12.027 5.00195 11.987 5.16195 12.027 5.30195C12.787 7.95195 14.907 10.0719 17.557 10.8319C17.597 10.8419 17.637 10.8519 17.677 10.8519C17.787 10.8519 17.887 10.8119 17.967 10.7319L19.167 9.52195C20.157 8.54195 20.637 7.59195 20.637 6.63195C20.647 5.64195 20.167 4.68195 19.167 3.69195Z" fill="#134D4A"/>
<path d="M15.7568 11.742C15.4668 11.602 15.1868 11.462 14.9168 11.302C14.6968 11.172 14.4868 11.032 14.2768 10.882C14.1068 10.772 13.9068 10.612 13.7168 10.452C13.6968 10.442 13.6268 10.382 13.5468 10.302C13.2168 10.022 12.8468 9.66196 12.5168 9.26196C12.4868 9.24196 12.4368 9.17196 12.3668 9.08196C12.2668 8.96196 12.0968 8.76196 11.9468 8.53196C11.8268 8.38196 11.6868 8.16196 11.5568 7.94196C11.3968 7.67196 11.2568 7.40196 11.1168 7.12196C11.0956 7.07657 11.0751 7.0314 11.0552 6.9865C10.9077 6.65318 10.473 6.55573 10.2153 6.81349L4.4868 12.542C4.3568 12.672 4.2368 12.922 4.2068 13.092L3.6668 16.922C3.5668 17.602 3.7568 18.242 4.1768 18.672C4.5368 19.022 5.0368 19.212 5.5768 19.212C5.6968 19.212 5.8168 19.202 5.9368 19.182L9.7768 18.642C9.9568 18.612 10.2068 18.492 10.3268 18.362L16.0481 12.6406C16.3077 12.3811 16.2098 11.9356 15.8721 11.7916C15.8341 11.7754 15.7957 11.7588 15.7568 11.742Z" fill="#134D4A"/>
</svg>
